<svg width="203" height="38" viewBox="0 0 203 38" fill="none" xmlns="http://www.w3.org/2000/svg">
<path d="M47.9091 31C47.4891 31 47.1391 30.86 46.8591 30.58C46.6024 30.3 46.4741 29.9617 46.4741 29.565V7.9C46.4741 7.50333 46.6024 7.17667 46.8591 6.92C47.1391 6.64 47.4774 6.5 47.8741 6.5H60.1591C60.5558 6.5 60.8941 6.62833 61.1741 6.885C61.4541 7.14167 61.5941 7.46833 61.5941 7.865C61.5941 8.23833 61.4541 8.55333 61.1741 8.81C60.8941 9.06667 60.5558 9.195 60.1591 9.195H49.1341L49.3441 8.915V17.49L49.1691 17.105H58.5841C58.9808 17.105 59.3191 17.245 59.5991 17.525C59.8791 17.7817 60.0191 18.1083 60.0191 18.505C60.0191 18.855 59.8791 19.17 59.5991 19.45C59.3191 19.7067 58.9808 19.835 58.5841 19.835H49.0991L49.3441 19.52V29.565C49.3441 29.9617 49.2041 30.3 48.9241 30.58C48.6441 30.86 48.3058 31 47.9091 31ZM66.8665 31C66.4698 31 66.1315 30.86 65.8515 30.58C65.5948 30.3 65.4665 29.9617 65.4665 29.565V14.305C65.4665 13.9083 65.5948 13.5817 65.8515 13.325C66.1315 13.045 66.4698 12.905 66.8665 12.905C67.2865 12.905 67.6248 13.045 67.8815 13.325C68.1382 13.5817 68.2665 13.9083 68.2665 14.305V18.925L67.8465 18.19C67.9865 17.4667 68.2315 16.7667 68.5815 16.09C68.9548 15.39 69.4215 14.7717 69.9815 14.235C70.5415 13.675 71.1832 13.2433 71.9065 12.94C72.6298 12.6133 73.4232 12.45 74.2865 12.45C74.7998 12.45 75.2665 12.5783 75.6865 12.835C76.1298 13.0683 76.3515 13.4067 76.3515 13.85C76.3515 14.34 76.2232 14.7017 75.9665 14.935C75.7098 15.1683 75.4182 15.285 75.0915 15.285C74.7882 15.285 74.4965 15.2267 74.2165 15.11C73.9365 14.97 73.5865 14.9 73.1665 14.9C72.5832 14.9 71.9998 15.0633 71.4165 15.39C70.8565 15.6933 70.3315 16.1367 69.8415 16.72C69.3748 17.3033 68.9898 17.9683 68.6865 18.715C68.4065 19.4383 68.2665 20.22 68.2665 21.06V29.565C68.2665 29.9617 68.1265 30.3 67.8465 30.58C67.5898 30.86 67.2632 31 66.8665 31ZM87.0932 31.35C85.2266 31.35 83.5932 30.9533 82.1932 30.16C80.7932 29.3667 79.6966 28.2817 78.9032 26.905C78.1332 25.505 77.7482 23.895 77.7482 22.075C77.7482 20.045 78.1449 18.3183 78.9382 16.895C79.7549 15.4483 80.8049 14.3517 82.0882 13.605C83.3949 12.835 84.7716 12.45 86.2182 12.45C87.2916 12.45 88.3299 12.6483 89.3332 13.045C90.3366 13.4417 91.2232 14.025 91.9932 14.795C92.7632 15.5417 93.3816 16.4517 93.8482 17.525C94.3149 18.575 94.5599 19.7533 94.5832 21.06C94.5832 21.4333 94.4432 21.7483 94.1632 22.005C93.8832 22.2617 93.5566 22.39 93.1832 22.39H79.3582L78.7282 19.975H92.2032L91.6432 20.465V19.695C91.5499 18.7383 91.2232 17.9217 90.6632 17.245C90.1266 16.545 89.4616 16.0083 88.6682 15.635C87.8982 15.2617 87.0816 15.075 86.2182 15.075C85.5182 15.075 84.8182 15.2033 84.1182 15.46C83.4416 15.6933 82.8232 16.09 82.2632 16.65C81.7266 17.1867 81.2832 17.8867 80.9332 18.75C80.6066 19.6133 80.4432 20.6517 80.4432 21.865C80.4432 23.2183 80.7116 24.4083 81.2482 25.435C81.8082 26.4617 82.5782 27.2783 83.5582 27.885C84.5382 28.4683 85.6816 28.76 86.9882 28.76C87.8049 28.76 88.5166 28.655 89.1232 28.445C89.7299 28.235 90.2549 27.9783 90.6982 27.675C91.1416 27.3483 91.5149 27.0217 91.8182 26.695C92.1216 26.485 92.4132 26.38 92.6932 26.38C93.0432 26.38 93.3232 26.4967 93.5332 26.73C93.7666 26.9633 93.8832 27.2433 93.8832 27.57C93.8832 27.9667 93.6966 28.3167 93.3232 28.62C92.6699 29.3433 91.7832 29.985 90.6632 30.545C89.5432 31.0817 88.3532 31.35 87.0932 31.35ZM107.157 31.35C105.29 31.35 103.657 30.9533 102.257 30.16C100.857 29.3667 99.76 28.2817 98.9667 26.905C98.1967 25.505 97.8117 23.895 97.8117 22.075C97.8117 20.045 98.2084 18.3183 99.0017 16.895C99.8184 15.4483 100.868 14.3517 102.152 13.605C103.458 12.835 104.835 12.45 106.282 12.45C107.355 12.45 108.393 12.6483 109.397 13.045C110.4 13.4417 111.287 14.025 112.057 14.795C112.827 15.5417 113.445 16.4517 113.912 17.525C114.378 18.575 114.623 19.7533 114.647 21.06C114.647 21.4333 114.507 21.7483 114.227 22.005C113.947 22.2617 113.62 22.39 113.247 22.39H99.4217L98.7917 19.975H112.267L111.707 20.465V19.695C111.613 18.7383 111.287 17.9217 110.727 17.245C110.19 16.545 109.525 16.0083 108.732 15.635C107.962 15.2617 107.145 15.075 106.282 15.075C105.582 15.075 104.882 15.2033 104.182 15.46C103.505 15.6933 102.887 16.09 102.327 16.65C101.79 17.1867 101.347 17.8867 100.997 18.75C100.67 19.6133 100.507 20.6517 100.507 21.865C100.507 23.2183 100.775 24.4083 101.312 25.435C101.872 26.4617 102.642 27.2783 103.622 27.885C104.602 28.4683 105.745 28.76 107.052 28.76C107.868 28.76 108.58 28.655 109.187 28.445C109.793 28.235 110.318 27.9783 110.762 27.675C111.205 27.3483 111.578 27.0217 111.882 26.695C112.185 26.485 112.477 26.38 112.757 26.38C113.107 26.38 113.387 26.4967 113.597 26.73C113.83 26.9633 113.947 27.2433 113.947 27.57C113.947 27.9667 113.76 28.3167 113.387 28.62C112.733 29.3433 111.847 29.985 110.727 30.545C109.607 31.0817 108.417 31.35 107.157 31.35ZM127.605 12.625C129.145 12.625 130.359 12.9633 131.245 13.64C132.155 14.2933 132.797 15.18 133.17 16.3C133.567 17.3967 133.765 18.6217 133.765 19.975V29.565C133.765 29.9617 133.625 30.3 133.345 30.58C133.089 30.86 132.762 31 132.365 31C131.969 31 131.63 30.86 131.35 30.58C131.094 30.3 130.965 29.9617 130.965 29.565V19.975C130.965 19.0883 130.837 18.295 130.58 17.595C130.324 16.8717 129.892 16.3 129.285 15.88C128.702 15.4367 127.897 15.215 126.87 15.215C125.914 15.215 125.039 15.4367 124.245 15.88C123.452 16.3 122.822 16.8717 122.355 17.595C121.889 18.295 121.655 19.0883 121.655 19.975V29.565C121.655 29.9617 121.515 30.3 121.235 30.58C120.979 30.86 120.652 31 120.255 31C119.859 31 119.52 30.86 119.24 30.58C118.984 30.3 118.855 29.9617 118.855 29.565V6.5C118.855 6.10333 118.984 5.77667 119.24 5.52C119.52 5.24 119.859 5.1 120.255 5.1C120.675 5.1 121.014 5.24 121.27 5.52C121.527 5.77667 121.655 6.10333 121.655 6.5V16.965L120.955 17.735C121.072 17.1283 121.329 16.5217 121.725 15.915C122.122 15.285 122.624 14.725 123.23 14.235C123.837 13.745 124.514 13.36 125.26 13.08C126.007 12.7767 126.789 12.625 127.605 12.625ZM153.863 12.73C154.26 12.73 154.586 12.87 154.843 13.15C155.123 13.4067 155.263 13.7333 155.263 14.13V29.565C155.263 29.9617 155.123 30.3 154.843 30.58C154.586 30.86 154.26 31 153.863 31C153.443 31 153.105 30.86 152.848 30.58C152.591 30.3 152.463 29.9617 152.463 29.565V26.24L153.128 26.17C153.128 26.6833 152.953 27.2433 152.603 27.85C152.253 28.4567 151.775 29.0283 151.168 29.565C150.561 30.0783 149.838 30.51 148.998 30.86C148.181 31.1867 147.295 31.35 146.338 31.35C144.751 31.35 143.328 30.9417 142.068 30.125C140.808 29.285 139.805 28.1533 139.058 26.73C138.335 25.3067 137.973 23.685 137.973 21.865C137.973 20.0217 138.335 18.4 139.058 17C139.805 15.5767 140.808 14.4683 142.068 13.675C143.328 12.8583 144.728 12.45 146.268 12.45C147.271 12.45 148.205 12.6133 149.068 12.94C149.931 13.2667 150.678 13.71 151.308 14.27C151.961 14.83 152.463 15.4483 152.813 16.125C153.186 16.8017 153.373 17.4783 153.373 18.155L152.463 17.945V14.13C152.463 13.7333 152.591 13.4067 152.848 13.15C153.105 12.87 153.443 12.73 153.863 12.73ZM146.653 28.76C147.82 28.76 148.846 28.4567 149.733 27.85C150.643 27.2433 151.343 26.4267 151.833 25.4C152.346 24.35 152.603 23.1717 152.603 21.865C152.603 20.5817 152.346 19.4267 151.833 18.4C151.343 17.35 150.643 16.5333 149.733 15.95C148.846 15.3433 147.82 15.04 146.653 15.04C145.51 15.04 144.483 15.3317 143.573 15.915C142.686 16.4983 141.986 17.3033 141.473 18.33C140.96 19.3567 140.703 20.535 140.703 21.865C140.703 23.1717 140.948 24.35 141.438 25.4C141.951 26.4267 142.651 27.2433 143.538 27.85C144.448 28.4567 145.486 28.76 146.653 28.76ZM169.447 12.45C171.034 12.45 172.282 12.7767 173.192 13.43C174.102 14.0833 174.744 14.9583 175.117 16.055C175.514 17.1517 175.712 18.3767 175.712 19.73V29.565C175.712 29.9617 175.572 30.3 175.292 30.58C175.035 30.86 174.709 31 174.312 31C173.915 31 173.577 30.86 173.297 30.58C173.04 30.3 172.912 29.9617 172.912 29.565V19.8C172.912 18.9133 172.772 18.12 172.492 17.42C172.235 16.6967 171.792 16.125 171.162 15.705C170.555 15.2617 169.715 15.04 168.642 15.04C167.662 15.04 166.764 15.2617 165.947 15.705C165.13 16.125 164.477 16.6967 163.987 17.42C163.497 18.12 163.252 18.9133 163.252 19.8V29.565C163.252 29.9617 163.112 30.3 162.832 30.58C162.575 30.86 162.249 31 161.852 31C161.455 31 161.117 30.86 160.837 30.58C160.58 30.3 160.452 29.9617 160.452 29.565V14.305C160.452 13.9083 160.58 13.5817 160.837 13.325C161.117 13.045 161.455 12.905 161.852 12.905C162.272 12.905 162.61 13.045 162.867 13.325C163.124 13.5817 163.252 13.9083 163.252 14.305V16.79L162.552 17.56C162.669 16.9533 162.937 16.3467 163.357 15.74C163.777 15.11 164.302 14.55 164.932 14.06C165.562 13.57 166.262 13.185 167.032 12.905C167.802 12.6017 168.607 12.45 169.447 12.45ZM195.801 5.1C196.198 5.1 196.525 5.24 196.781 5.52C197.061 5.77667 197.201 6.10333 197.201 6.5V29.565C197.201 29.9617 197.061 30.3 196.781 30.58C196.525 30.86 196.198 31 195.801 31C195.381 31 195.043 30.86 194.786 30.58C194.53 30.3 194.401 29.9617 194.401 29.565V26.24L195.066 25.995C195.066 26.555 194.891 27.15 194.541 27.78C194.191 28.3867 193.713 28.9583 193.106 29.495C192.5 30.0317 191.776 30.475 190.936 30.825C190.12 31.175 189.233 31.35 188.276 31.35C186.713 31.35 185.29 30.9417 184.006 30.125C182.746 29.3083 181.743 28.1883 180.996 26.765C180.273 25.3417 179.911 23.72 179.911 21.9C179.911 20.0567 180.273 18.4233 180.996 17C181.743 15.5767 182.746 14.4683 184.006 13.675C185.266 12.8583 186.666 12.45 188.206 12.45C189.186 12.45 190.108 12.6133 190.971 12.94C191.835 13.2667 192.581 13.71 193.211 14.27C193.865 14.83 194.378 15.4483 194.751 16.125C195.125 16.8017 195.311 17.4783 195.311 18.155L194.401 17.945V6.5C194.401 6.10333 194.53 5.77667 194.786 5.52C195.043 5.24 195.381 5.1 195.801 5.1ZM188.591 28.76C189.758 28.76 190.785 28.4683 191.671 27.885C192.581 27.2783 193.281 26.4617 193.771 25.435C194.285 24.385 194.541 23.2067 194.541 21.9C194.541 20.57 194.285 19.3917 193.771 18.365C193.281 17.3383 192.581 16.5333 191.671 15.95C190.785 15.3433 189.758 15.04 188.591 15.04C187.448 15.04 186.421 15.3433 185.511 15.95C184.625 16.5333 183.925 17.3383 183.411 18.365C182.898 19.3917 182.641 20.57 182.641 21.9C182.641 23.1833 182.898 24.35 183.411 25.4C183.925 26.4267 184.625 27.2433 185.511 27.85C186.421 28.4567 187.448 28.76 188.591 28.76Z" fill="#16133D"/>
<path d="M10.3892 21.5C15.3195 21.5 19.2783 17.4494 19.2783 12.5C19.2783 7.55057 15.3195 3.5 10.3892 3.5C5.45884 3.5 1.5 7.55057 1.5 12.5C1.5 17.4494 5.45884 21.5 10.3892 21.5Z" stroke="#3DB370" stroke-width="3"/>
<path d="M10.3892 36.5C15.3195 36.5 19.2783 32.4494 19.2783 27.5C19.2783 22.5506 15.3195 18.5 10.3892 18.5C5.45884 18.5 1.5 22.5506 1.5 27.5C1.5 32.4494 5.45884 36.5 10.3892 36.5Z" stroke="#3DB370" stroke-width="3"/>
<path d="M25.1675 36.5C30.0978 36.5 34.0566 32.4494 34.0566 27.5C34.0566 22.5506 30.0978 18.5 25.1675 18.5C20.2372 18.5 16.2783 22.5506 16.2783 27.5C16.2783 32.4494 20.2372 36.5 25.1675 36.5Z" stroke="#3DB370" stroke-width="3"/>
<path d="M25.1675 21.5C30.0978 21.5 34.0566 17.4494 34.0566 12.5C34.0566 7.55057 30.0978 3.5 25.1675 3.5C20.2372 3.5 16.2783 7.55057 16.2783 12.5C16.2783 17.4494 20.2372 21.5 25.1675 21.5Z" stroke="#3DB370" stroke-width="3"/>
<ellipse cx="10.8818" cy="13" rx="7.88177" ry="8" fill="white"/>
<ellipse cx="10.8818" cy="27" rx="7.88177" ry="8" fill="white"/>
<ellipse cx="18.2709" cy="20.5" rx="7.38916" ry="7.5" fill="white"/>
<ellipse cx="24.6749" cy="13" rx="7.88177" ry="8" fill="white"/>
<ellipse cx="24.6749" cy="27" rx="7.88177" ry="8" fill="white"/>
</svg>
